<?xml version="1.0" encoding="UTF-8"?>
<svg version="1.1" xmlns="http://www.w3.org/2000/svg" width="888" height="156">
<path d="M0 0 C6.68468132 7.84664024 7.52967478 21.26815241 8.91015625 31.2421875 C9.00731934 31.94126221 9.10448242 32.64033691 9.20458984 33.3605957 C10.22497483 41.92944805 10.1528665 50.56266645 10.16015625 59.1796875 C10.16116333 60.00344879 10.16217041 60.82721008 10.16320801 61.67593384 C10.14706366 81.17902105 10.0113822 101.18779717 -4.08984375 116.2421875 C-14.97955863 126.83355403 -29.69522162 130.19150007 -44.46484375 130.5546875 C-52.70911054 130.42022443 -62.14504071 130.05461251 -68.83984375 124.6796875 C-72.27356297 120.95982501 -72.51339609 118.43822522 -72.41796875 113.5078125 C-72.08984375 111.2421875 -72.08984375 111.2421875 -70.21484375 108.1796875 C-65.2917929 105.12739597 -60.29328883 105.56004604 -54.73144531 106.74438477 C-50.44763515 107.55165731 -46.18842316 107.50894508 -41.83984375 107.5546875 C-40.48439453 107.59819336 -40.48439453 107.59819336 -39.1015625 107.64257812 C-31.2182837 107.71630663 -25.04749291 106.0069465 -19.21484375 100.5546875 C-15.24783897 94.37082711 -13.6230435 88.55539144 -14.08984375 81.2421875 C-14.51394531 81.76167969 -14.93804687 82.28117187 -15.375 82.81640625 C-21.0318323 89.54244202 -26.18334525 94.60932944 -35.08984375 96.2421875 C-44.62043462 97.06454973 -52.93660821 95.78331939 -60.83984375 90.1796875 C-69.8821747 82.49290881 -73.65337277 71.78841872 -75.08984375 60.2421875 C-76.45780787 41.84259624 -75.20009144 25.45888744 -65.40234375 9.4921875 C-58.14809666 2.43400114 -50.12229102 -0.34958715 -40.08984375 -0.7578125 C-31.16342815 -0.46069592 -24.30329734 4.02873391 -18.08984375 10.2421875 C-17.98027344 9.63890625 -17.87070313 9.035625 -17.7578125 8.4140625 C-16.09105882 0.01253987 -16.09105882 0.01253987 -13.08984375 -2.7578125 C-8.66812638 -4.96867119 -3.57688635 -3.008596 0 0 Z M-47.83984375 25.0546875 C-51.67329699 30.48541292 -52.48868591 35.83609422 -52.83984375 42.3671875 C-52.88077148 43.11202393 -52.92169922 43.85686035 -52.96386719 44.62426758 C-53.38377778 54.68805256 -52.50390261 64.27637129 -45.58984375 72.0546875 C-41.38174139 75.73677706 -37.32101461 75.64274809 -31.9453125 75.5859375 C-26.03201668 74.87407699 -22.45566459 71.54730519 -18.27734375 67.5546875 C-12.48734985 58.78698245 -11.83007311 48.68533235 -13.55859375 38.47265625 C-15.37806637 31.42219983 -18.81871916 25.65658898 -24.71484375 21.3046875 C-33.28728131 17.46964964 -41.17927561 18.24274281 -47.83984375 25.0546875 Z " fill="#4088D5" transform="translate(270.08984375,25.7578125)"/>
<path d="M0 0 C11.15901745 7.65814923 17.52187502 20.81509745 20.60742188 33.6862793 C21.40199376 38.36921323 21.32735119 43.07496916 21.3125 47.8125 C21.32861328 48.82892578 21.34472656 49.84535156 21.36132812 50.89257812 C21.37071569 65.62167483 16.53160943 78.0574805 6.3828125 88.7421875 C-6.39318384 100.84796764 -21.40385351 102.49698026 -38.234375 102.2734375 C-51.15998554 101.85149611 -62.82038604 96.77684752 -71.8125 87.3125 C-80.93609975 75.86971182 -85.35910117 60.61629852 -84 46 C-83.89558594 44.84886719 -83.79117188 43.69773438 -83.68359375 42.51171875 C-81.84703744 26.0488942 -76.19374498 12.45236528 -64 1 C-45.29551698 -13.53409912 -19.33693556 -12.27091017 0 0 Z M-53.52734375 22.734375 C-59.73130727 32.27893426 -60.24155002 42.93528489 -59 54 C-58.16407225 57.7241051 -56.94839314 60.72839907 -55 64 C-54.57589844 64.72574219 -54.15179688 65.45148438 -53.71484375 66.19921875 C-49.85373733 72.0177663 -44.68773283 75.54837465 -38.01953125 77.61328125 C-30.84195011 78.98771168 -23.50781643 78.40181313 -17 75 C-9.01305434 69.39625587 -4.86966985 63.43036792 -2.75 54 C-0.59008297 41.3490574 -3.02299505 30.46550743 -10.125 19.8125 C-14.62298346 14.86742782 -20.0572566 12.39236579 -26.6328125 11.515625 C-37.91214515 11.10546745 -46.42589173 13.66869158 -53.52734375 22.734375 Z " fill="#4088D5" transform="translate(84,21)"/>
<path d="M0 0 C12.91947648 11.91429982 16.87464948 31.06051327 18 48 C18.16190682 52.74396519 18.22756719 57.48226158 18.24023438 62.22875977 C18.24996498 64.42958031 18.28108735 66.62947449 18.3125 68.83007812 C18.4353567 84.71827414 18.4353567 84.71827414 15 91 C11.5558551 94.00832745 9.37640746 94.54351074 4.8984375 94.34375 C3 94 3 94 0.625 92.4375 C-1.39014684 89.41477974 -2.18718714 86.52218907 -3 83 C-3.70962891 83.58007812 -3.70962891 83.58007812 -4.43359375 84.171875 C-15.93772629 93.23165969 -28.33769632 96.07835268 -42.9296875 94.53125 C-51.43762273 93.05913907 -58.28032761 89.5386555 -64 83 C-69.10049963 75.09052956 -69.75935507 67.28338316 -69 58 C-67.15934377 50.38494222 -63.35409163 44.03736262 -56.89453125 39.53125 C-49.57774208 35.19910633 -42.23009819 33.60639433 -33.8125 33.625 C-33.07999023 33.62588623 -32.34748047 33.62677246 -31.59277344 33.62768555 C-22.63818635 33.81951391 -14.56682939 36.18097909 -7 41 C-7.89329341 33.74699083 -9.12885345 27.64307688 -14 22 C-19.60421247 17.62871427 -24.15483364 16.5 -31.12890625 16.5 C-37.05182119 17.26501828 -42.42203829 19.35028244 -47.96850586 21.50976562 C-52.45187062 23.23477853 -56.1074846 24.59393207 -61 24 C-63.8125 22.5 -63.8125 22.5 -66 20 C-67.3181824 15.34759153 -67.47404154 12.32957449 -65.5625 7.875 C-60.78030335 -0.40873724 -51.7500707 -4.1580967 -43 -7 C-28.15018704 -10.69872037 -12.29572375 -9.836579 0 0 Z M-44.0625 56.1875 C-46.14943532 59.21692223 -46.73254899 61.31197381 -46.48828125 65.00390625 C-45.58689116 68.68878895 -43.76956062 70.41507675 -41 73 C-33.8861446 76.66319795 -23.49217373 76.07761512 -15.9375 73.8125 C-11.84689135 72.14996529 -8.98342937 70.28177231 -6 67 C-4.67451168 63.55663226 -4.67451168 63.55663226 -5 60 C-7.59712588 55.23860256 -10.99517691 53.75607828 -16 52 C-25.86986478 49.68146733 -35.67295577 50.19496841 -44.0625 56.1875 Z " fill="#4088D5" transform="translate(362,32)"/>
<path d="M0 0 C6.32181006 4.89807468 9.4849811 9.76629834 11.6875 17.375 C12.80281773 26.74366897 11.84136747 35.34085716 6.3125 43.25 C-0.36681688 51.38990459 -9.56471187 56.47394811 -20 58 C-30.08416533 58.59456043 -40.58438766 59.16269177 -50 55 C-49.58614247 60.27668353 -48.98759497 63.40143869 -45 67 C-38.21047611 70.55576721 -31.97123503 71.68182679 -24.375 71.5625 C-23.42077148 71.55734375 -22.46654297 71.5521875 -21.48339844 71.546875 C-13.89015711 71.35341662 -7.52533488 69.67492465 -0.43359375 67.1328125 C4.13484698 65.62559087 8.27030556 64.88005278 13 66 C16.125 67.9375 16.125 67.9375 18 71 C18.92117157 75.51457056 18.44318496 78.97261669 16.625 83.1875 C7.20016201 93.2855407 -6.21025884 95.64400941 -19.4375 96.125 C-34.44452222 96.37101676 -50.32884543 95.13977245 -61.77734375 84.3203125 C-70.92590819 74.68820872 -73.52099766 61.6314086 -73.1875 48.625 C-72.08455071 33.18370993 -67.89720594 18.14600562 -56.3125 7.1875 C-42.24948652 -4.17213808 -16.34814292 -10.22116817 0 0 Z M-45.5859375 22.2265625 C-48.15997087 25.45477009 -49.42098602 28.93186284 -50 33 C-49.21782593 36.59800074 -47.8380005 38.70109567 -45 41 C-35.66095124 43.71946732 -25.89387509 43.74782817 -17.125 39.25 C-11.33859206 35.12570446 -11.33859206 35.12570446 -8.58984375 28.7890625 C-8.41193179 24.13241043 -8.81988612 20.60412907 -12 17 C-22.04192049 9.53293092 -37.17764677 14.37616783 -45.5859375 22.2265625 Z " fill="#4088D5" transform="translate(708,30)"/>
<path d="M0 0 C3.25322873 2.81360322 4.71475366 4.77915347 5.2734375 9.12890625 C5.70680592 19.51308028 1.16623042 26.1120101 -5.625 33.5 C-7.71738979 35.70032042 -9.84754241 37.85853135 -12 40 C-12.83273437 40.83273438 -13.66546875 41.66546875 -14.5234375 42.5234375 C-26.70435328 54.08954365 -40.85053862 63.99841177 -55 73 C-54.41621582 72.91435791 -53.83243164 72.82871582 -53.23095703 72.74047852 C-50.5293049 72.34549857 -47.82716062 71.95398553 -45.125 71.5625 C-44.2071875 71.42779297 -43.289375 71.29308594 -42.34375 71.15429688 C-8.71607177 66.29959685 -8.71607177 66.29959685 1 72 C3.36477568 74.36477568 3.89513369 75.8180693 4.1875 79.11328125 C4.09691868 82.48177407 3.71776681 85.00952543 1.71484375 87.7734375 C-9.19986539 97.93985689 -25.35205061 98.28243421 -39.43579102 97.92773438 C-51.98424349 97.4250721 -64.19065868 96.73610923 -74 88 C-76.72167911 84.47782703 -77.2360173 81.71855188 -77.125 77.375 C-75.11027538 63.10046171 -62.62933742 51.7014674 -52 43 C-51.49791016 42.58024902 -50.99582031 42.16049805 -50.47851562 41.72802734 C-40.47610684 33.37816519 -29.94843009 26.05326102 -19 19 C-20.04220703 19.16435547 -20.04220703 19.16435547 -21.10546875 19.33203125 C-23.99804705 19.78296551 -26.89200633 20.22397377 -29.78662109 20.66162109 C-31.34744309 20.90023782 -32.9076105 21.14315566 -34.46728516 21.38916016 C-64.72550255 26.15249858 -64.72550255 26.15249858 -74 21 C-76.5083887 17.65548173 -76.97632583 15.66287671 -77.125 11.5 C-75.55853618 6.62655702 -73.38408409 4.55614394 -69 2 C-51.54722775 -5.71047849 -16.65435182 -11.10290122 0 0 Z " fill="#4088D5" transform="translate(619,28)"/>
<path d="M0 0 C8.71647829 6.86019125 12.04625046 18.32140791 13.3125 28.9375 C14.66105503 48.13182949 15.87844028 75.65147183 4.0625 92.0625 C0.22284143 94.68044903 -2.0217627 94.9375 -6.6875 94.9375 C-9.96516831 93.65493414 -11.26250032 92.80795339 -12.80859375 89.64135742 C-15.29506026 81.99201947 -13.50095089 72.99111841 -12.6875 65.125 C-11.9340761 57.08076118 -11.44657449 49.08034753 -11.375 41 C-11.35759766 40.10756592 -11.34019531 39.21513184 -11.32226562 38.2956543 C-11.32739658 31.53626521 -12.31727751 25.81049695 -16.75 20.4375 C-21.0876 18.22255532 -24.91509037 18.20092231 -29.6875 18.9375 C-35.98210377 21.78788661 -39.10293449 26.88232231 -41.54980469 33.14428711 C-44.25605296 42.00327041 -44.17793743 50.76215662 -44.25 59.9375 C-44.52873418 87.54063038 -44.52873418 87.54063038 -49.6875 93.9375 C-53.74153188 96.64018792 -56.93137141 96.5738834 -61.6875 95.9375 C-64.79753792 94.45009056 -66.1361346 93.17661206 -67.5402832 90.02099609 C-70.0650274 82.35193364 -70.11264066 74.94474016 -70 66.9375 C-69.98928115 65.52156619 -69.97862118 64.10563194 -69.96801758 62.68969727 C-69.40288163 9.65151911 -69.40288163 9.65151911 -59.1875 -1.734375 C-56.976073 -3.69240932 -55.80106433 -4.05262484 -52.8125 -4.3125 C-49.23359542 -4.02618763 -48.23843353 -3.51451978 -45.6875 -1.0625 C-44.640625 1.63671875 -44.640625 1.63671875 -43.9375 4.625 C-43.69515625 5.61886719 -43.4528125 6.61273438 -43.203125 7.63671875 C-43.03296875 8.39597656 -42.8628125 9.15523437 -42.6875 9.9375 C-42.275 9.41800781 -41.8625 8.89851563 -41.4375 8.36328125 C-30.50783869 -4.83526064 -15.18027225 -9.42915589 0 0 Z " fill="#4088D5" transform="translate(468.6875,28.0625)"/>
<path d="M0 0 C2.96858157 2.20740681 3.82865791 3.48597373 5 7 C5.11908696 8.55920839 5.17522605 10.12379867 5.1875 11.6875 C5.20167969 12.49574219 5.21585938 13.30398438 5.23046875 14.13671875 C4.92620832 17.91676783 3.98652912 21.33853421 3 25 C3.63502441 24.97905273 4.27004883 24.95810547 4.92431641 24.93652344 C7.82438076 24.85295419 10.72419116 24.80121226 13.625 24.75 C14.62402344 24.71648438 15.62304688 24.68296875 16.65234375 24.6484375 C22.59194002 24.56976735 26.42737478 24.767732 31 29 C33.51934542 32.60416271 33.19682449 35.60413618 32.6015625 39.8125 C31.63848558 43.3145979 29.88136289 44.88700055 27 47 C22.26976005 48.98074469 17.93583904 49.27669846 12.875 49.1875 C11.82119141 49.1865332 11.82119141 49.1865332 10.74609375 49.18554688 C7.33247754 49.15650855 4.28287836 48.90788567 1 48 C1.28746094 49.05058594 1.57492187 50.10117187 1.87109375 51.18359375 C5.53490945 65.90018913 7.13934524 81.50320764 7.875 96.625 C7.92406494 97.52871338 7.97312988 98.43242676 8.02368164 99.36352539 C8.34412726 108.31843272 7.25727052 116.57797104 2 124 C-1.34042786 126.64930485 -4.86696196 126.3625472 -9 126 C-12.67544066 124.32934515 -15.00529697 122.51447677 -17 119 C-19.62680193 111.20651045 -19.34924573 103.25597073 -19.3125 95.125 C-19.31200653 94.38121094 -19.31151306 93.63742188 -19.31100464 92.87109375 C-19.23938908 57.47877815 -19.23938908 57.47877815 -15 49 C-16.34191406 49.23396484 -16.34191406 49.23396484 -17.7109375 49.47265625 C-35.73231415 52.37375206 -35.73231415 52.37375206 -42.5625 48.0625 C-45.15466793 45.86912714 -45.89723171 45.11661704 -46.203125 41.79296875 C-46.36665687 32.70332255 -46.36665687 32.70332255 -43 29 C-34.28372517 23.80732563 -25.70640826 24.5881588 -16 26 C-16.05220703 24.74896484 -16.05220703 24.74896484 -16.10546875 23.47265625 C-16.30356952 15.23732432 -16.35879052 7.93458318 -10.8125 1.4375 C-6.7903431 -0.61826908 -4.50358153 -0.57188337 0 0 Z " fill="#4088D5" transform="translate(827,0)"/>
<path d="M0 0 C4.39070298 4.18648424 6.12649447 8.28087786 8 14 C8.37511719 13.46890625 8.75023437 12.9378125 9.13671875 12.390625 C13.20232378 6.77865635 17.07019289 1.93389966 24 0 C30.2288476 -0.61267353 34.93463244 0.13860631 40 4 C46.23810523 11.13828751 47.36307786 19.79378988 47.25 28.9375 C47.23984863 30.12327637 47.23984863 30.12327637 47.22949219 31.33300781 C47.08585429 39.42683605 46.50860727 46.57329152 41 53 C37.38781967 55.56866157 35.74474735 56.07573702 31.3125 55.625 C27.966983 53.98380298 26.64640773 52.9833203 25.4140625 49.45703125 C24.64629747 44.90114255 24.90445307 40.32024183 25.08984375 35.71875 C24.99956634 31.98205044 24.81801777 26.81801777 22 24 C19.12693772 23.49904977 19.12693772 23.49904977 16 24 C11.60711831 28.02680822 10.1818186 32.7727199 9.85644531 38.5480957 C9.78049634 46.2654281 10.7054248 53.53026851 12 61.125 C13.27828749 69.19235276 14.40270445 77.13380507 14.4375 85.3125 C14.44716797 86.01584473 14.45683594 86.71918945 14.46679688 87.44384766 C14.39077066 91.98194175 13.34893773 95.13654037 11 99 C7.93329272 101.79611547 5.52623218 102.23639043 1.5 102.0625 C-2.08311156 101.49705881 -3.0034399 100.99700878 -5.875 98.5 C-11.0494915 90.97256689 -11.81928944 81.67540198 -12.88037109 72.84545898 C-13.12259926 70.83245104 -13.37842479 68.82154985 -13.63671875 66.81054688 C-20.16763134 15.05525508 -20.16763134 15.05525508 -10 1 C-6.69078168 -1.64737466 -3.9348836 -1.28485995 0 0 Z " fill="#4088D5" transform="translate(138,23)"/>
<path d="M0 0 C4.86336242 3.19592388 5.72835847 8.63262254 7 14 C7.60320058 17.94850351 7.92164212 21.89080725 8.1875 25.875 C8.26645508 26.99777344 8.34541016 28.12054688 8.42675781 29.27734375 C12.67719623 95.73874446 12.67719623 95.73874446 2.0234375 110.79296875 C-0.77988615 113.85064802 -1.57421599 113.95811961 -5.8125 114.375 C-9.21955443 114.31934938 -9.94678821 114.03817367 -12.875 111.9375 C-28.00553948 91.02175425 -19.81778127 40.97053141 -16.33984375 17.12109375 C-15.18884603 10.37124143 -13.87928807 3.97412085 -8.125 -0.4375 C-5.0618945 -1.24832204 -3.0310404 -0.88405345 0 0 Z " fill="#4088D5" transform="translate(759,5)"/>
<path d="M0 0 C3.27024563 0.24875709 3.84670178 0.53834497 6.3125 2.9375 C16.5847678 22.25481776 14.30460984 55.56429537 9.1171875 76.19921875 C7.33021012 81.46869142 5.24948916 87.06275542 0 89.6875 C-3.3125 90.125 -3.3125 90.125 -7 89.6875 C-13.18680118 83.91315224 -14.66412782 76.99649702 -15.10705566 68.67657471 C-15.16393419 66.47404034 -15.190863 64.27354904 -15.203125 62.0703125 C-15.20882507 61.25488983 -15.21452515 60.43946716 -15.22039795 59.59933472 C-15.22980349 57.87645748 -15.23636414 56.15356262 -15.24023438 54.43066406 C-15.24984343 51.85447683 -15.28086841 49.27912227 -15.3125 46.703125 C-15.39979957 33.02821806 -15.10821309 17.80686715 -8 5.6875 C-7.4225 4.676875 -6.845 3.66625 -6.25 2.625 C-3.84526273 0.55425401 -3.05527389 0.26026407 0 0 Z " fill="#4088D5" transform="translate(516,36.3125)"/>
<path d="M0 0 C3.952616 2.08120758 6.20444189 4.23035698 8.02734375 8.28125 C10.18181935 15.63984623 9.60949065 23.46063082 6.02734375 30.28125 C3.26718819 33.37262423 0.06848357 36.057312 -4.14453125 36.51953125 C-8.44709211 36.64339285 -11.41561712 36.52432162 -15.41015625 34.78125 C-20.16104357 30.14623798 -21.13063701 25.30086961 -21.34765625 18.78125 C-21.13611829 12.14079767 -19.79656145 7.42433861 -15.47265625 2.34375 C-11.01867367 -1.33078562 -5.40522988 -1.96943029 0 0 Z " fill="#4088D5" transform="translate(878.97265625,89.71875)"/>
<path d="M0 0 C2.74864368 2.49876698 3.88051486 4.32904459 5.0625 7.875 C5.26769655 12.52885767 4.66800397 15.90619365 2.1875 19.875 C-1.90227694 23.72420182 -6.70186484 23.25765648 -12.04296875 23.23828125 C-15.00910793 22.86601277 -16.07677617 22.53405949 -18.125 20.4375 C-18.723125 19.591875 -19.32125 18.74625 -19.9375 17.875 C-20.2675 17.545 -20.5975 17.215 -20.9375 16.875 C-21.45971135 12.49588484 -21.93682599 7.87751038 -19.92578125 3.84765625 C-14.9788326 -2.22832573 -7.03889664 -2.69574765 0 0 Z " fill="#4088D5" transform="translate(522.9375,2.125)"/>
</svg>
