<?xml version="1.0" encoding="UTF-8"?>
<svg version="1.1" xmlns="http://www.w3.org/2000/svg" width="512" height="512">
<path d="M0 0 C1.0094165 -0.0112793 2.01883301 -0.02255859 3.05883789 -0.03417969 C4.16026123 -0.02608276 5.26168457 -0.01798584 6.39648438 -0.00964355 C7.56107178 -0.01665283 8.72565918 -0.02366211 9.92553711 -0.03088379 C13.78067771 -0.04850975 17.63508612 -0.03682384 21.49023438 -0.02331543 C24.1653739 -0.026009 26.84049107 -0.02988396 29.515625 -0.03491211 C35.12442987 -0.0421874 40.733024 -0.03260414 46.34179688 -0.0135498 C52.82441344 0.008219 59.30652679 0.00116752 65.78913116 -0.02085543 C71.35700027 -0.03901302 76.92471797 -0.04156609 82.49260712 -0.03110075 C85.81719107 -0.02486765 89.14148689 -0.02559741 92.46606445 -0.0372467 C96.17238595 -0.04738291 99.87773545 -0.03195028 103.58398438 -0.00964355 C104.68540771 -0.01774048 105.78683105 -0.0258374 106.92163086 -0.03417969 C108.43575562 -0.01726074 108.43575562 -0.01726074 109.98046875 0 C110.85650757 0.0015081 111.73254639 0.0030162 112.63513184 0.00457001 C115.78270225 0.67731159 116.99558209 2.03642168 118.99023438 4.50793457 C119.49816895 7.0880127 119.49816895 7.0880127 119.5078125 10.03918457 C119.52042114 11.14713379 119.53302979 12.25508301 119.54602051 13.39660645 C119.53792358 14.58834473 119.52982666 15.78008301 119.52148438 17.00793457 C119.52531128 18.2357666 119.52913818 19.46359863 119.53308105 20.7286377 C119.53580279 23.32434916 119.52842349 25.92008793 119.51171875 28.51574707 C119.49031512 32.49293056 119.511514 36.46830739 119.53710938 40.44543457 C119.53446615 42.9662719 119.52934128 45.4871081 119.52148438 48.00793457 C119.5295813 49.19967285 119.53767822 50.39141113 119.54602051 51.6192627 C119.52710754 53.28118652 119.52710754 53.28118652 119.5078125 54.97668457 C119.50463013 55.95057129 119.50144775 56.92445801 119.49816895 57.92785645 C118.99023438 60.50793457 118.99023438 60.50793457 117.51409912 62.82525635 C113.77024926 65.32130715 110.49733857 65.03695229 106.09082031 64.96203613 C105.19290771 64.96262024 104.29499512 64.96320435 103.36987305 64.96380615 C100.40439078 64.96102125 97.43991586 64.92990991 94.47460938 64.89855957 C92.41766916 64.89109863 90.36072184 64.88540501 88.30377197 64.88140869 C82.89160516 64.86614085 77.47986816 64.82684883 72.06787109 64.78259277 C65.57346479 64.73446841 59.07891471 64.71611157 52.5843811 64.69277954 C42.71936665 64.65399881 32.85529517 64.57735251 22.99023438 64.50793457 C22.99023438 93.54793457 22.99023438 122.58793457 22.99023438 152.50793457 C28.27023438 152.50793457 33.55023438 152.50793457 38.99023438 152.50793457 C38.90773437 151.10543457 38.82523438 149.70293457 38.74023438 148.25793457 C38.76035203 145.06425739 38.84517249 143.75574863 40.49023438 140.94543457 C44.25387913 138.78133884 46.67079378 139.02799673 50.99023438 139.50793457 C52.73632813 141.03527832 52.73632813 141.03527832 53.99023438 142.50793457 C54.02890625 141.49473145 54.02890625 141.49473145 54.06835938 140.46105957 C54.1534375 139.1230127 54.1534375 139.1230127 54.24023438 137.75793457 C54.28664062 136.87621582 54.33304688 135.99449707 54.38085938 135.08605957 C55.16441076 131.77103449 56.3771205 130.6565379 58.99023438 128.50793457 C61.34533691 128.00457001 61.34533691 128.00457001 64 128 C65.0094165 127.9887207 66.01883301 127.97744141 67.05883789 127.96582031 C68.16026123 127.97391724 69.26168457 127.98201416 70.39648438 127.99035645 C71.56107178 127.98334717 72.72565918 127.97633789 73.92553711 127.96911621 C77.78067771 127.95149025 81.63508612 127.96317616 85.49023438 127.97668457 C88.1653739 127.973991 90.84049107 127.97011604 93.515625 127.96508789 C99.12442987 127.9578126 104.733024 127.96739586 110.34179688 127.9864502 C116.82441344 128.008219 123.30652679 128.00116752 129.78913116 127.97914457 C135.35700027 127.96098698 140.92471797 127.95843391 146.49260712 127.96889925 C149.81719107 127.97513235 153.14148689 127.97440259 156.46606445 127.9627533 C160.17238595 127.95261709 163.87773545 127.96804972 167.58398438 127.99035645 C168.68540771 127.98225952 169.78683105 127.9741626 170.92163086 127.96582031 C172.43575562 127.98273926 172.43575562 127.98273926 173.98046875 128 C174.85650757 128.0015081 175.73254639 128.0030162 176.63513184 128.00457001 C179.78270225 128.67731159 180.99558209 130.03642168 182.99023438 132.50793457 C183.49816895 135.0880127 183.49816895 135.0880127 183.5078125 138.03918457 C183.52672546 139.7011084 183.52672546 139.7011084 183.54602051 141.39660645 C183.53792358 142.58834473 183.52982666 143.78008301 183.52148438 145.00793457 C183.52531128 146.2357666 183.52913818 147.46359863 183.53308105 148.7286377 C183.53580279 151.32434916 183.52842349 153.92008793 183.51171875 156.51574707 C183.49031512 160.49293056 183.511514 164.46830739 183.53710938 168.44543457 C183.53446615 170.9662719 183.52934128 173.4871081 183.52148438 176.00793457 C183.5295813 177.19967285 183.53767822 178.39141113 183.54602051 179.6192627 C183.52710754 181.28118652 183.52710754 181.28118652 183.5078125 182.97668457 C183.50463013 183.95057129 183.50144775 184.92445801 183.49816895 185.92785645 C182.99023438 188.50793457 182.99023438 188.50793457 181.51409912 190.82525635 C177.77024926 193.32130715 174.49733857 193.03695229 170.09082031 192.96203613 C169.19290771 192.96262024 168.29499512 192.96320435 167.36987305 192.96380615 C164.40439078 192.96102125 161.43991586 192.92990991 158.47460938 192.89855957 C156.41766916 192.89109863 154.36072184 192.88540501 152.30377197 192.88140869 C146.89160516 192.86614085 141.47986816 192.82684883 136.06787109 192.78259277 C129.57346479 192.73446841 123.07891471 192.71611157 116.5843811 192.69277954 C106.71936665 192.65399881 96.85529517 192.57735251 86.99023438 192.50793457 C86.99023438 221.54793457 86.99023438 250.58793457 86.99023438 280.50793457 C92.27023438 280.50793457 97.55023438 280.50793457 102.99023438 280.50793457 C102.90773438 279.10543457 102.82523437 277.70293457 102.74023438 276.25793457 C102.76035203 273.06425739 102.84517249 271.75574863 104.49023438 268.94543457 C108.25387913 266.78133884 110.67079378 267.02799673 114.99023438 267.50793457 C116.73632813 269.03527832 116.73632813 269.03527832 117.99023438 270.50793457 C118.01601562 269.83246582 118.04179687 269.15699707 118.06835938 268.46105957 C118.1534375 267.1230127 118.1534375 267.1230127 118.24023438 265.75793457 C118.28664063 264.87621582 118.33304687 263.99449707 118.38085938 263.08605957 C119.16441076 259.77103449 120.3771205 258.6565379 122.99023438 256.50793457 C125.34533691 256.00457001 125.34533691 256.00457001 128 256 C129.51412476 255.98308105 129.51412476 255.98308105 131.05883789 255.96582031 C132.7109729 255.9779657 132.7109729 255.9779657 134.39648438 255.99035645 C135.56107178 255.98334717 136.72565918 255.97633789 137.92553711 255.96911621 C141.78067771 255.95149025 145.63508612 255.96317616 149.49023438 255.97668457 C152.1653739 255.973991 154.84049107 255.97011604 157.515625 255.96508789 C163.12442987 255.9578126 168.733024 255.96739586 174.34179688 255.9864502 C180.82441344 256.008219 187.30652679 256.00116752 193.78913116 255.97914457 C199.35700027 255.96098698 204.92471797 255.95843391 210.49260712 255.96889925 C213.81719107 255.97513235 217.14148689 255.97440259 220.46606445 255.9627533 C224.17238595 255.95261709 227.87773545 255.96804972 231.58398438 255.99035645 C232.68540771 255.98225952 233.78683105 255.9741626 234.92163086 255.96582031 C236.43575562 255.98273926 236.43575562 255.98273926 237.98046875 256 C238.85650757 256.0015081 239.73254639 256.0030162 240.63513184 256.00457001 C243.78270225 256.67731159 244.99558209 258.03642168 246.99023438 260.50793457 C247.49816895 263.0880127 247.49816895 263.0880127 247.5078125 266.03918457 C247.52042114 267.14713379 247.53302979 268.25508301 247.54602051 269.39660645 C247.53387512 271.18421387 247.53387512 271.18421387 247.52148438 273.00793457 C247.52531128 274.2357666 247.52913818 275.46359863 247.53308105 276.7286377 C247.53580279 279.32434916 247.52842349 281.92008793 247.51171875 284.51574707 C247.49031512 288.49293056 247.511514 292.46830739 247.53710938 296.44543457 C247.53446615 298.9662719 247.52934128 301.4871081 247.52148438 304.00793457 C247.5295813 305.19967285 247.53767822 306.39141113 247.54602051 307.6192627 C247.53341187 308.72721191 247.52080322 309.83516113 247.5078125 310.97668457 C247.50463013 311.95057129 247.50144775 312.92445801 247.49816895 313.92785645 C246.99023438 316.50793457 246.99023438 316.50793457 245.51409912 318.82525635 C241.77024926 321.32130715 238.49733857 321.03695229 234.09082031 320.96203613 C233.19290771 320.96262024 232.29499512 320.96320435 231.36987305 320.96380615 C228.40439078 320.96102125 225.43991586 320.92990991 222.47460938 320.89855957 C220.41766916 320.89109863 218.36072184 320.88540501 216.30377197 320.88140869 C210.89160516 320.86614085 205.47986816 320.82684883 200.06787109 320.78259277 C193.57346479 320.73446841 187.07891471 320.71611157 180.5843811 320.69277954 C170.71936665 320.65399881 160.85529517 320.57735251 150.99023438 320.50793457 C150.99023438 349.54793457 150.99023438 378.58793457 150.99023438 408.50793457 C156.27023438 408.50793457 161.55023438 408.50793457 166.99023438 408.50793457 C166.90773437 407.10543457 166.82523438 405.70293457 166.74023438 404.25793457 C166.76035203 401.06425739 166.84517249 399.75574863 168.49023438 396.94543457 C172.25387913 394.78133884 174.67079378 395.02799673 178.99023438 395.50793457 C180.73632812 397.03527832 180.73632812 397.03527832 181.99023438 398.50793457 C182.01601562 397.83246582 182.04179687 397.15699707 182.06835938 396.46105957 C182.12507812 395.56902832 182.18179688 394.67699707 182.24023438 393.75793457 C182.28664062 392.87621582 182.33304688 391.99449707 182.38085938 391.08605957 C183.16441076 387.77103449 184.3771205 386.6565379 186.99023438 384.50793457 C189.34533691 384.00457001 189.34533691 384.00457001 192 384 C193.0094165 383.9887207 194.01883301 383.97744141 195.05883789 383.96582031 C196.16026123 383.97391724 197.26168457 383.98201416 198.39648438 383.99035645 C200.14336548 383.97984253 200.14336548 383.97984253 201.92553711 383.96911621 C205.78067771 383.95149025 209.63508612 383.96317616 213.49023438 383.97668457 C216.1653739 383.973991 218.84049107 383.97011604 221.515625 383.96508789 C227.12442987 383.9578126 232.733024 383.96739586 238.34179688 383.9864502 C244.82441344 384.008219 251.30652679 384.00116752 257.78913116 383.97914457 C263.35700027 383.96098698 268.92471797 383.95843391 274.49260712 383.96889925 C277.81719107 383.97513235 281.14148689 383.97440259 284.46606445 383.9627533 C288.17238595 383.95261709 291.87773545 383.96804972 295.58398438 383.99035645 C296.68540771 383.98225952 297.78683105 383.9741626 298.92163086 383.96582031 C300.43575562 383.98273926 300.43575562 383.98273926 301.98046875 384 C302.85650757 384.0015081 303.73254639 384.0030162 304.63513184 384.00457001 C307.78270225 384.67731159 308.99558209 386.03642168 310.99023438 388.50793457 C311.49816895 391.0880127 311.49816895 391.0880127 311.5078125 394.03918457 C311.52042114 395.14713379 311.53302979 396.25508301 311.54602051 397.39660645 C311.53387512 399.18421387 311.53387512 399.18421387 311.52148438 401.00793457 C311.52531128 402.2357666 311.52913818 403.46359863 311.53308105 404.7286377 C311.53580279 407.32434916 311.52842349 409.92008793 311.51171875 412.51574707 C311.49031512 416.49293056 311.511514 420.46830739 311.53710938 424.44543457 C311.53446615 426.9662719 311.52934128 429.4871081 311.52148438 432.00793457 C311.5295813 433.19967285 311.53767822 434.39141113 311.54602051 435.6192627 C311.53341187 436.72721191 311.52080322 437.83516113 311.5078125 438.97668457 C311.50463013 439.95057129 311.50144775 440.92445801 311.49816895 441.92785645 C310.83451028 445.29894262 309.62436762 446.34820835 306.99023438 448.50793457 C304.63513184 449.01129913 304.63513184 449.01129913 301.98046875 449.01586914 C300.46634399 449.03278809 300.46634399 449.03278809 298.92163086 449.05004883 C297.82020752 449.0419519 296.71878418 449.03385498 295.58398438 449.0255127 C294.41939697 449.03252197 293.25480957 449.03953125 292.05493164 449.04675293 C288.19979104 449.06437889 284.34538263 449.05269298 280.49023438 449.03918457 C277.81509485 449.04187814 275.13997768 449.0457531 272.46484375 449.05078125 C266.85603888 449.05805654 261.24744475 449.04847328 255.63867188 449.02941895 C249.15605531 449.00765014 242.67394196 449.01470162 236.19133759 449.03672457 C230.62346848 449.05488216 225.05575078 449.05743523 219.48786163 449.04696989 C216.16327768 449.04073679 212.83898186 449.04146655 209.5144043 449.05311584 C205.8080828 449.06325205 202.1027333 449.04781942 198.39648438 449.0255127 C197.29506104 449.03360962 196.1936377 449.04170654 195.05883789 449.05004883 C194.04942139 449.03876953 193.04000488 449.02749023 192 449.01586914 C191.12396118 449.01436104 190.24792236 449.01285294 189.34533691 449.01129913 C186.19824497 448.33865982 184.98898178 446.97527764 182.99023438 444.50793457 C182.38085938 441.92980957 182.38085938 441.92980957 182.24023438 439.25793457 C182.18351563 438.36590332 182.12679687 437.47387207 182.06835938 436.55480957 C182.0296875 435.54160645 182.0296875 435.54160645 181.99023438 434.50793457 C181.57644531 434.99391113 181.16265625 435.4798877 180.73632812 435.98059082 C178.30549989 438.10688576 176.06831255 437.99406262 172.93164062 437.84387207 C170.99023438 437.50793457 170.99023438 437.50793457 168.49023438 436.07043457 C166.82795802 433.23071247 166.82706808 432.06117449 166.89648438 428.84777832 C166.91001953 428.03558838 166.92355469 427.22339844 166.9375 426.38659668 C166.96360352 425.45665894 166.96360352 425.45665894 166.99023438 424.50793457 C166.16297852 424.52888184 165.33572266 424.5498291 164.48339844 424.57141113 C160.73580067 424.65455076 156.98839688 424.70658988 153.24023438 424.75793457 C151.93828125 424.7914502 150.63632813 424.82496582 149.29492188 424.85949707 C148.04453125 424.8723877 146.79414063 424.88527832 145.50585938 424.89855957 C144.35375977 424.91950684 143.20166016 424.9404541 142.01464844 424.96203613 C138.99023437 424.50793457 138.99023437 424.50793457 136.82958984 423.08166504 C134.03372955 419.16953879 134.46279027 415.56960881 134.53613281 410.87414551 C134.53554871 409.89820435 134.5349646 408.92226318 134.53436279 407.91674805 C134.53714907 404.69157317 134.56826751 401.46732296 134.59960938 398.24230957 C134.60706981 396.00600693 134.61276367 393.76969775 134.61676025 391.53338623 C134.632032 385.64776558 134.67132756 379.76253983 134.71557617 373.8770752 C134.75649538 367.87127017 134.77476414 361.86540132 134.79492188 355.85949707 C134.83781993 344.07546941 134.90609027 332.29173483 134.99023438 320.50793457 C134.17039063 320.55434082 133.35054687 320.60074707 132.50585938 320.64855957 C131.42820313 320.68465332 130.35054687 320.72074707 129.24023438 320.75793457 C128.17289063 320.80434082 127.10554687 320.85074707 126.00585938 320.89855957 C122.99023437 320.50793457 122.99023437 320.50793457 120.63769531 318.65344238 C118.65171029 316.06707067 118.41017598 314.48682504 118.24023438 311.25793457 C118.18351562 310.36590332 118.12679687 309.47387207 118.06835938 308.55480957 C118.04257813 307.87934082 118.01679688 307.20387207 117.99023438 306.50793457 C117.57644531 306.99391113 117.16265625 307.4798877 116.73632812 307.98059082 C114.30549989 310.10688576 112.06831255 309.99406262 108.93164062 309.84387207 C106.99023438 309.50793457 106.99023438 309.50793457 104.49023438 308.07043457 C102.82795802 305.23071247 102.82706808 304.06117449 102.89648438 300.84777832 C102.91001953 300.03558838 102.92355469 299.22339844 102.9375 298.38659668 C102.95490234 297.76663818 102.97230469 297.14667969 102.99023438 296.50793457 C102.16297852 296.52888184 101.33572266 296.5498291 100.48339844 296.57141113 C96.73580067 296.65455076 92.98839688 296.70658988 89.24023438 296.75793457 C87.93828125 296.7914502 86.63632813 296.82496582 85.29492188 296.85949707 C84.04453125 296.8723877 82.79414063 296.88527832 81.50585938 296.89855957 C80.35375977 296.91950684 79.20166016 296.9404541 78.01464844 296.96203613 C74.99023438 296.50793457 74.99023438 296.50793457 72.82958984 295.08166504 C70.03372955 291.16953879 70.46279027 287.56960881 70.53613281 282.87414551 C70.53554871 281.89820435 70.5349646 280.92226318 70.53436279 279.91674805 C70.53714907 276.69157317 70.56826751 273.46732296 70.59960938 270.24230957 C70.60706981 268.00600693 70.61276367 265.76969775 70.61676025 263.53338623 C70.632032 257.64776558 70.67132756 251.76253983 70.71557617 245.8770752 C70.75649538 239.87127017 70.77476414 233.86540132 70.79492188 227.85949707 C70.83781993 216.07546941 70.90609027 204.29173483 70.99023438 192.50793457 C70.17039062 192.55434082 69.35054688 192.60074707 68.50585938 192.64855957 C67.42820312 192.68465332 66.35054688 192.72074707 65.24023438 192.75793457 C64.17289062 192.80434082 63.10554688 192.85074707 62.00585938 192.89855957 C58.99023438 192.50793457 58.99023438 192.50793457 56.63769531 190.65344238 C54.65171029 188.06707067 54.41017598 186.48682504 54.24023438 183.25793457 C54.18351562 182.36590332 54.12679687 181.47387207 54.06835938 180.55480957 C54.04257813 179.87934082 54.01679687 179.20387207 53.99023438 178.50793457 C53.57644531 178.99391113 53.16265625 179.4798877 52.73632812 179.98059082 C50.30549989 182.10688576 48.06831255 181.99406262 44.93164062 181.84387207 C42.99023438 181.50793457 42.99023438 181.50793457 40.49023438 180.07043457 C38.82795802 177.23071247 38.82706808 176.06117449 38.89648438 172.84777832 C38.91001953 172.03558838 38.92355469 171.22339844 38.9375 170.38659668 C38.95490234 169.76663818 38.97230469 169.14667969 38.99023438 168.50793457 C38.16297852 168.52888184 37.33572266 168.5498291 36.48339844 168.57141113 C32.73580067 168.65455076 28.98839688 168.70658988 25.24023438 168.75793457 C23.93828125 168.7914502 22.63632813 168.82496582 21.29492188 168.85949707 C20.04453125 168.8723877 18.79414062 168.88527832 17.50585938 168.89855957 C16.35375977 168.91950684 15.20166016 168.9404541 14.01464844 168.96203613 C10.99023438 168.50793457 10.99023438 168.50793457 8.82958984 167.08166504 C6.03372955 163.16953879 6.46279027 159.56960881 6.53613281 154.87414551 C6.53554871 153.89820435 6.5349646 152.92226318 6.53436279 151.91674805 C6.53714907 148.69157317 6.56826751 145.46732296 6.59960938 142.24230957 C6.60706981 140.00600693 6.61276367 137.76969775 6.61676025 135.53338623 C6.632032 129.64776558 6.67132756 123.76253983 6.71557617 117.8770752 C6.75649538 111.87127017 6.77476414 105.86540132 6.79492188 99.85949707 C6.83781993 88.07546941 6.90609027 76.29173483 6.99023438 64.50793457 C6.17039062 64.55434082 5.35054687 64.60074707 4.50585938 64.64855957 C3.42820312 64.68465332 2.35054687 64.72074707 1.24023438 64.75793457 C0.17289063 64.80434082 -0.89445312 64.85074707 -1.99414062 64.89855957 C-5.00976562 64.50793457 -5.00976562 64.50793457 -7.36804199 62.8380127 C-9.37617097 59.98789998 -9.516017 58.44295718 -9.52734375 54.97668457 C-9.53995239 53.86873535 -9.55256104 52.76078613 -9.56555176 51.6192627 C-9.55745483 50.42752441 -9.54935791 49.23578613 -9.54101562 48.00793457 C-9.54484253 46.78010254 -9.54866943 45.55227051 -9.5526123 44.28723145 C-9.55533404 41.69151998 -9.54795474 39.09578121 -9.53125 36.50012207 C-9.50984637 32.52293858 -9.53104525 28.54756175 -9.55664062 24.57043457 C-9.5539974 22.04959724 -9.54887253 19.52876104 -9.54101562 17.00793457 C-9.54911255 15.81619629 -9.55720947 14.62445801 -9.56555176 13.39660645 C-9.55294312 12.28865723 -9.54033447 11.18070801 -9.52734375 10.03918457 C-9.52416138 9.06529785 -9.520979 8.09141113 -9.5177002 7.0880127 C-8.47901365 1.81195435 -5.09405303 0.00876942 0 0 Z " fill="#00143C" transform="translate(73.009765625,31.4920654296875)"/>
<path d="M0 0 C1.0094165 -0.0112793 2.01883301 -0.02255859 3.05883789 -0.03417969 C4.16026123 -0.02608276 5.26168457 -0.01798584 6.39648438 -0.00964355 C7.56107178 -0.01665283 8.72565918 -0.02366211 9.92553711 -0.03088379 C13.78067771 -0.04850975 17.63508612 -0.03682384 21.49023438 -0.02331543 C24.1653739 -0.026009 26.84049107 -0.02988396 29.515625 -0.03491211 C35.12442987 -0.0421874 40.733024 -0.03260414 46.34179688 -0.0135498 C52.82441344 0.008219 59.30652679 0.00116752 65.78913116 -0.02085543 C71.35700027 -0.03901302 76.92471797 -0.04156609 82.49260712 -0.03110075 C85.81719107 -0.02486765 89.14148689 -0.02559741 92.46606445 -0.0372467 C96.17238595 -0.04738291 99.87773545 -0.03195028 103.58398438 -0.00964355 C104.68540771 -0.01774048 105.78683105 -0.0258374 106.92163086 -0.03417969 C108.43575562 -0.01726074 108.43575562 -0.01726074 109.98046875 0 C110.85650757 0.0015081 111.73254639 0.0030162 112.63513184 0.00457001 C115.78270225 0.67731159 116.99558209 2.03642168 118.99023438 4.50793457 C119.49816895 7.0880127 119.49816895 7.0880127 119.5078125 10.03918457 C119.52042114 11.14713379 119.53302979 12.25508301 119.54602051 13.39660645 C119.53792358 14.58834473 119.52982666 15.78008301 119.52148438 17.00793457 C119.52531128 18.2357666 119.52913818 19.46359863 119.53308105 20.7286377 C119.53580279 23.32434916 119.52842349 25.92008793 119.51171875 28.51574707 C119.49031512 32.49293056 119.511514 36.46830739 119.53710938 40.44543457 C119.53446615 42.9662719 119.52934128 45.4871081 119.52148438 48.00793457 C119.5295813 49.19967285 119.53767822 50.39141113 119.54602051 51.6192627 C119.52710754 53.28118652 119.52710754 53.28118652 119.5078125 54.97668457 C119.50463013 55.95057129 119.50144775 56.92445801 119.49816895 57.92785645 C118.99023438 60.50793457 118.99023438 60.50793457 117.51409912 62.82525635 C113.77024926 65.32130715 110.49733857 65.03695229 106.09082031 64.96203613 C105.19290771 64.96262024 104.29499512 64.96320435 103.36987305 64.96380615 C100.40439078 64.96102125 97.43991586 64.92990991 94.47460938 64.89855957 C92.41766916 64.89109863 90.36072184 64.88540501 88.30377197 64.88140869 C82.89160516 64.86614085 77.47986816 64.82684883 72.06787109 64.78259277 C65.57346479 64.73446841 59.07891471 64.71611157 52.5843811 64.69277954 C42.71936665 64.65399881 32.85529517 64.57735251 22.99023438 64.50793457 C22.99023438 93.54793457 22.99023438 122.58793457 22.99023438 152.50793457 C28.27023438 152.50793457 33.55023438 152.50793457 38.99023438 152.50793457 C38.90773437 151.10543457 38.82523438 149.70293457 38.74023438 148.25793457 C38.76035203 145.06425739 38.84517249 143.75574863 40.49023438 140.94543457 C44.25387913 138.78133884 46.67079378 139.02799673 50.99023438 139.50793457 C52.73632813 141.03527832 52.73632813 141.03527832 53.99023438 142.50793457 C54.02890625 141.49473145 54.02890625 141.49473145 54.06835938 140.46105957 C54.1534375 139.1230127 54.1534375 139.1230127 54.24023438 137.75793457 C54.28664062 136.87621582 54.33304688 135.99449707 54.38085938 135.08605957 C55.16441076 131.77103449 56.3771205 130.6565379 58.99023438 128.50793457 C61.34533691 128.00457001 61.34533691 128.00457001 64 128 C65.0094165 127.9887207 66.01883301 127.97744141 67.05883789 127.96582031 C68.16026123 127.97391724 69.26168457 127.98201416 70.39648438 127.99035645 C71.56107178 127.98334717 72.72565918 127.97633789 73.92553711 127.96911621 C77.78067771 127.95149025 81.63508612 127.96317616 85.49023438 127.97668457 C88.1653739 127.973991 90.84049107 127.97011604 93.515625 127.96508789 C99.12442987 127.9578126 104.733024 127.96739586 110.34179688 127.9864502 C116.82441344 128.008219 123.30652679 128.00116752 129.78913116 127.97914457 C135.35700027 127.96098698 140.92471797 127.95843391 146.49260712 127.96889925 C149.81719107 127.97513235 153.14148689 127.97440259 156.46606445 127.9627533 C160.17238595 127.95261709 163.87773545 127.96804972 167.58398438 127.99035645 C168.68540771 127.98225952 169.78683105 127.9741626 170.92163086 127.96582031 C172.43575562 127.98273926 172.43575562 127.98273926 173.98046875 128 C174.85650757 128.0015081 175.73254639 128.0030162 176.63513184 128.00457001 C179.78270225 128.67731159 180.99558209 130.03642168 182.99023438 132.50793457 C183.49816895 135.0880127 183.49816895 135.0880127 183.5078125 138.03918457 C183.52672546 139.7011084 183.52672546 139.7011084 183.54602051 141.39660645 C183.53792358 142.58834473 183.52982666 143.78008301 183.52148438 145.00793457 C183.52531128 146.2357666 183.52913818 147.46359863 183.53308105 148.7286377 C183.53580279 151.32434916 183.52842349 153.92008793 183.51171875 156.51574707 C183.49031512 160.49293056 183.511514 164.46830739 183.53710938 168.44543457 C183.53446615 170.9662719 183.52934128 173.4871081 183.52148438 176.00793457 C183.5295813 177.19967285 183.53767822 178.39141113 183.54602051 179.6192627 C183.52710754 181.28118652 183.52710754 181.28118652 183.5078125 182.97668457 C183.50463013 183.95057129 183.50144775 184.92445801 183.49816895 185.92785645 C182.83451028 189.29894262 181.62436762 190.34820835 178.99023438 192.50793457 C176.63513184 193.01129913 176.63513184 193.01129913 173.98046875 193.01586914 C172.97105225 193.02714844 171.96163574 193.03842773 170.92163086 193.05004883 C169.26949585 193.03790344 169.26949585 193.03790344 167.58398438 193.0255127 C166.41939697 193.03252197 165.25480957 193.03953125 164.05493164 193.04675293 C160.19979104 193.06437889 156.34538263 193.05269298 152.49023438 193.03918457 C149.81509485 193.04187814 147.13997768 193.0457531 144.46484375 193.05078125 C138.85603888 193.05805654 133.24744475 193.04847328 127.63867188 193.02941895 C121.15605531 193.00765014 114.67394196 193.01470162 108.19133759 193.03672457 C102.62346848 193.05488216 97.05575078 193.05743523 91.48786163 193.04696989 C88.16327768 193.04073679 84.83898186 193.04146655 81.5144043 193.05311584 C77.8080828 193.06325205 74.1027333 193.04781942 70.39648438 193.0255127 C69.29506104 193.03360962 68.1936377 193.04170654 67.05883789 193.05004883 C66.04942139 193.03876953 65.04000488 193.02749023 64 193.01586914 C63.12396118 193.01436104 62.24792236 193.01285294 61.34533691 193.01129913 C58.19824497 192.33865982 56.98898178 190.97527764 54.99023438 188.50793457 C54.38085938 185.92980957 54.38085938 185.92980957 54.24023438 183.25793457 C54.18351562 182.36590332 54.12679687 181.47387207 54.06835938 180.55480957 C54.04257813 179.87934082 54.01679688 179.20387207 53.99023438 178.50793457 C53.57644531 178.99391113 53.16265625 179.4798877 52.73632812 179.98059082 C50.30549989 182.10688576 48.06831255 181.99406262 44.93164062 181.84387207 C42.99023438 181.50793457 42.99023438 181.50793457 40.49023438 180.07043457 C38.82795802 177.23071247 38.82706808 176.06117449 38.89648438 172.84777832 C38.91001953 172.03558838 38.92355469 171.22339844 38.9375 170.38659668 C38.95490234 169.76663818 38.97230469 169.14667969 38.99023438 168.50793457 C38.16297852 168.52888184 37.33572266 168.5498291 36.48339844 168.57141113 C32.73580067 168.65455076 28.98839688 168.70658988 25.24023438 168.75793457 C23.93828125 168.7914502 22.63632813 168.82496582 21.29492188 168.85949707 C20.04453125 168.8723877 18.79414063 168.88527832 17.50585938 168.89855957 C16.35375977 168.91950684 15.20166016 168.9404541 14.01464844 168.96203613 C10.99023438 168.50793457 10.99023438 168.50793457 8.82958984 167.08166504 C6.03372955 163.16953879 6.46279027 159.56960881 6.53613281 154.87414551 C6.53554871 153.89820435 6.5349646 152.92226318 6.53436279 151.91674805 C6.53714907 148.69157317 6.56826751 145.46732296 6.59960938 142.24230957 C6.60706981 140.00600693 6.61276367 137.76969775 6.61676025 135.53338623 C6.632032 129.64776558 6.67132756 123.76253983 6.71557617 117.8770752 C6.75649538 111.87127017 6.77476414 105.86540132 6.79492188 99.85949707 C6.83781993 88.07546941 6.90609027 76.29173483 6.99023438 64.50793457 C6.17039063 64.55434082 5.35054687 64.60074707 4.50585938 64.64855957 C3.42820313 64.68465332 2.35054687 64.72074707 1.24023438 64.75793457 C0.17289063 64.80434082 -0.89445313 64.85074707 -1.99414062 64.89855957 C-5.00976562 64.50793457 -5.00976562 64.50793457 -7.35620117 62.66101074 C-10.07927972 59.11533974 -9.85285012 55.96040194 -9.73632812 51.61730957 C-8.6296331 46.88113086 -5.91966999 44.59205754 -2.27148438 41.54309082 C0.21073446 39.30952258 1.65241219 37.57168435 2.99023438 34.50793457 C2.92941871 29.34536061 1.05152387 26.90787177 -2.44726562 23.25793457 C-3.25035156 22.40715332 -4.0534375 21.55637207 -4.88085938 20.67980957 C-6.25045084 19.28257497 -7.62628355 17.89141665 -9.00976562 16.50793457 C-9.34570312 13.82824707 -9.34570312 13.82824707 -9.38476562 10.63293457 C-9.413125 9.5836377 -9.44148437 8.53434082 -9.47070312 7.45324707 C-8.60875862 1.94556778 -5.33154468 0.00917826 0 0 Z " fill="#F9B300" transform="translate(201.009765625,287.4920654296875)"/>
<path d="M0 0 C14.35546434 11.70990834 26.06794902 27.89121936 28.30664062 46.72021484 C29.76601625 68.44058871 26.97909464 88.67535502 12.32739258 105.62890625 C-0.87957734 120.09489289 -17.32732525 130.10586173 -37.24804688 131.03271484 C-56.89563562 131.59483083 -72.28945775 127.65614926 -88.69335938 116.72021484 C-89.60859375 117.64705078 -90.52382813 118.57388672 -91.46679688 119.52880859 C-92.66718548 120.73857523 -93.86771355 121.94820349 -95.06835938 123.15771484 C-95.97328125 124.07520508 -95.97328125 124.07520508 -96.89648438 125.01123047 C-97.4765625 125.59453125 -98.05664062 126.17783203 -98.65429688 126.77880859 C-99.45552979 127.58789673 -99.45552979 127.58789673 -100.27294922 128.41333008 C-103.14512125 131.05594556 -105.88969011 131.06628823 -109.71679688 130.98974609 C-111.69335938 130.72021484 -111.69335938 130.72021484 -114.19335938 129.22021484 C-115.88085157 126.40772786 -116.44245707 124.15597045 -116.27148438 120.86474609 C-115.10654545 116.54345237 -111.82325185 113.75947336 -108.69335938 110.72021484 C-107.69175781 109.70121094 -107.69175781 109.70121094 -106.66992188 108.66162109 C-105.02787821 106.99611966 -103.36988528 105.35087834 -101.69335938 103.72021484 C-102.22445313 102.82560547 -102.75554687 101.93099609 -103.30273438 101.00927734 C-114.76274453 81.48933097 -119.59860149 61.25928034 -114.19335938 38.65771484 C-108.3328744 20.40240625 -96.35671198 3.90118501 -79.15429688 -5.21728516 C-54.07967623 -17.82087913 -22.90831524 -17.31334898 0 0 Z " fill="#C80A50" transform="translate(419.693359375,125.27978515625)"/>
<path d="M0 0 C1.0094165 -0.0112793 2.01883301 -0.02255859 3.05883789 -0.03417969 C4.16026123 -0.02608276 5.26168457 -0.01798584 6.39648438 -0.00964355 C7.56107178 -0.01665283 8.72565918 -0.02366211 9.92553711 -0.03088379 C13.78067771 -0.04850975 17.63508612 -0.03682384 21.49023438 -0.02331543 C24.1653739 -0.026009 26.84049107 -0.02988396 29.515625 -0.03491211 C35.12442987 -0.0421874 40.733024 -0.03260414 46.34179688 -0.0135498 C52.82441344 0.008219 59.30652679 0.00116752 65.78913116 -0.02085543 C71.35700027 -0.03901302 76.92471797 -0.04156609 82.49260712 -0.03110075 C85.81719107 -0.02486765 89.14148689 -0.02559741 92.46606445 -0.0372467 C96.17238595 -0.04738291 99.87773545 -0.03195028 103.58398438 -0.00964355 C104.68540771 -0.01774048 105.78683105 -0.0258374 106.92163086 -0.03417969 C108.43575562 -0.01726074 108.43575562 -0.01726074 109.98046875 0 C110.85650757 0.0015081 111.73254639 0.0030162 112.63513184 0.00457001 C115.78270225 0.67731159 116.99558209 2.03642168 118.99023438 4.50793457 C119.49816895 7.0880127 119.49816895 7.0880127 119.5078125 10.03918457 C119.52042114 11.14713379 119.53302979 12.25508301 119.54602051 13.39660645 C119.53792358 14.58834473 119.52982666 15.78008301 119.52148438 17.00793457 C119.52531128 18.2357666 119.52913818 19.46359863 119.53308105 20.7286377 C119.53580279 23.32434916 119.52842349 25.92008793 119.51171875 28.51574707 C119.49031512 32.49293056 119.511514 36.46830739 119.53710938 40.44543457 C119.53446615 42.9662719 119.52934128 45.4871081 119.52148438 48.00793457 C119.5295813 49.19967285 119.53767822 50.39141113 119.54602051 51.6192627 C119.52710754 53.28118652 119.52710754 53.28118652 119.5078125 54.97668457 C119.50463013 55.95057129 119.50144775 56.92445801 119.49816895 57.92785645 C118.99023438 60.50793457 118.99023438 60.50793457 117.51409912 62.82525635 C113.77024926 65.32130715 110.49733857 65.03695229 106.09082031 64.96203613 C105.19290771 64.96262024 104.29499512 64.96320435 103.36987305 64.96380615 C100.40439078 64.96102125 97.43991586 64.92990991 94.47460938 64.89855957 C92.41766916 64.89109863 90.36072184 64.88540501 88.30377197 64.88140869 C82.89160516 64.86614085 77.47986816 64.82684883 72.06787109 64.78259277 C65.57346479 64.73446841 59.07891471 64.71611157 52.5843811 64.69277954 C42.71936665 64.65399881 32.85529517 64.57735251 22.99023438 64.50793457 C22.99023438 93.54793457 22.99023438 122.58793457 22.99023438 152.50793457 C28.27023438 152.50793457 33.55023438 152.50793457 38.99023438 152.50793457 C38.90773437 151.10543457 38.82523438 149.70293457 38.74023438 148.25793457 C38.76035203 145.06425739 38.84517249 143.75574863 40.49023438 140.94543457 C43.98295857 138.93711816 47.11237431 138.66842052 50.99023438 139.50793457 C53.8502475 141.35662196 56.01926179 143.68637193 58.30273438 146.19543457 C58.90923828 146.82127441 59.51574219 147.44711426 60.140625 148.09191895 C68.02898407 156.37946891 68.02898407 156.37946891 67.93554688 161.51184082 C66.20708407 166.99006796 61.90957221 170.46113859 57.99023438 174.50793457 C57.37277344 175.23367676 56.7553125 175.95941895 56.11914062 176.70715332 C52.19121483 181.17936445 52.19121483 181.17936445 48.91992188 182.07434082 C45.64084093 182.26188973 43.32261835 181.69905536 40.49023438 180.07043457 C38.82795802 177.23071247 38.82706808 176.06117449 38.89648438 172.84777832 C38.91001953 172.03558838 38.92355469 171.22339844 38.9375 170.38659668 C38.95490234 169.76663818 38.97230469 169.14667969 38.99023438 168.50793457 C38.16297852 168.52888184 37.33572266 168.5498291 36.48339844 168.57141113 C32.73580067 168.65455076 28.98839688 168.70658988 25.24023438 168.75793457 C23.93828125 168.7914502 22.63632813 168.82496582 21.29492188 168.85949707 C20.04453125 168.8723877 18.79414063 168.88527832 17.50585938 168.89855957 C16.35375977 168.91950684 15.20166016 168.9404541 14.01464844 168.96203613 C10.99023438 168.50793457 10.99023438 168.50793457 8.82958984 167.08166504 C6.03372955 163.16953879 6.46279027 159.56960881 6.53613281 154.87414551 C6.53554871 153.89820435 6.5349646 152.92226318 6.53436279 151.91674805 C6.53714907 148.69157317 6.56826751 145.46732296 6.59960938 142.24230957 C6.60706981 140.00600693 6.61276367 137.76969775 6.61676025 135.53338623 C6.632032 129.64776558 6.67132756 123.76253983 6.71557617 117.8770752 C6.75649538 111.87127017 6.77476414 105.86540132 6.79492188 99.85949707 C6.83781993 88.07546941 6.90609027 76.29173483 6.99023438 64.50793457 C6.17039063 64.55434082 5.35054687 64.60074707 4.50585938 64.64855957 C3.42820313 64.68465332 2.35054687 64.72074707 1.24023438 64.75793457 C0.17289063 64.80434082 -0.89445313 64.85074707 -1.99414062 64.89855957 C-5.00976562 64.50793457 -5.00976562 64.50793457 -7.35180664 62.67028809 C-10.1925956 58.96525675 -9.96868233 55.50437176 -9.87695312 50.96887207 C-8.47658487 45.38001498 -4.7927678 42.57894659 -0.51367188 39.04309082 C2.40295553 36.09006245 3.00120353 34.62685266 2.99023438 30.50793457 C2.06313531 28.31672744 2.06313531 28.31672744 0.42773438 26.50793457 C-0.12269531 25.82215332 -0.673125 25.13637207 -1.24023438 24.42980957 C-2.8606292 22.66991055 -4.53283434 21.26069504 -6.38476562 19.75793457 C-9.36165417 16.92205654 -9.497974 14.41828764 -9.63476562 10.38293457 C-9.60775312 6.84429659 -9.52099955 5.1434011 -7.28527832 2.36438751 C-4.59122198 0.16647017 -3.42966014 0.00590417 0 0 Z " fill="#019FC7" transform="translate(137.009765625,159.4920654296875)"/>
<path d="M0 0 C1.0094165 -0.0112793 2.01883301 -0.02255859 3.05883789 -0.03417969 C4.16026123 -0.02608276 5.26168457 -0.01798584 6.39648438 -0.00964355 C7.56107178 -0.01665283 8.72565918 -0.02366211 9.92553711 -0.03088379 C13.78067771 -0.04850975 17.63508612 -0.03682384 21.49023438 -0.02331543 C24.1653739 -0.026009 26.84049107 -0.02988396 29.515625 -0.03491211 C35.12442987 -0.0421874 40.733024 -0.03260414 46.34179688 -0.0135498 C52.82441344 0.008219 59.30652679 0.00116752 65.78913116 -0.02085543 C71.35700027 -0.03901302 76.92471797 -0.04156609 82.49260712 -0.03110075 C85.81719107 -0.02486765 89.14148689 -0.02559741 92.46606445 -0.0372467 C96.17238595 -0.04738291 99.87773545 -0.03195028 103.58398438 -0.00964355 C104.68540771 -0.01774048 105.78683105 -0.0258374 106.92163086 -0.03417969 C108.43575562 -0.01726074 108.43575562 -0.01726074 109.98046875 0 C110.85650757 0.0015081 111.73254639 0.0030162 112.63513184 0.00457001 C115.78270225 0.67731159 116.99558209 2.03642168 118.99023438 4.50793457 C119.49816895 7.0880127 119.49816895 7.0880127 119.5078125 10.03918457 C119.52042114 11.14713379 119.53302979 12.25508301 119.54602051 13.39660645 C119.53792358 14.58834473 119.52982666 15.78008301 119.52148438 17.00793457 C119.52531128 18.2357666 119.52913818 19.46359863 119.53308105 20.7286377 C119.53580279 23.32434916 119.52842349 25.92008793 119.51171875 28.51574707 C119.49031512 32.49293056 119.511514 36.46830739 119.53710938 40.44543457 C119.53446615 42.9662719 119.52934128 45.4871081 119.52148438 48.00793457 C119.5295813 49.19967285 119.53767822 50.39141113 119.54602051 51.6192627 C119.52710754 53.28118652 119.52710754 53.28118652 119.5078125 54.97668457 C119.50463013 55.95057129 119.50144775 56.92445801 119.49816895 57.92785645 C118.83451028 61.29894262 117.62436762 62.34820835 114.99023438 64.50793457 C112.63513184 65.01129913 112.63513184 65.01129913 109.98046875 65.01586914 C108.97105225 65.02714844 107.96163574 65.03842773 106.92163086 65.05004883 C105.82020752 65.0419519 104.71878418 65.03385498 103.58398438 65.0255127 C102.41939697 65.03252197 101.25480957 65.03953125 100.05493164 65.04675293 C96.19979104 65.06437889 92.34538263 65.05269298 88.49023438 65.03918457 C85.81509485 65.04187814 83.13997768 65.0457531 80.46484375 65.05078125 C74.85603888 65.05805654 69.24744475 65.04847328 63.63867188 65.02941895 C57.15605531 65.00765014 50.67394196 65.01470162 44.19133759 65.03672457 C38.62346848 65.05488216 33.05575078 65.05743523 27.48786163 65.04696989 C24.16327768 65.04073679 20.83898186 65.04146655 17.5144043 65.05311584 C13.8080828 65.06325205 10.1027333 65.04781942 6.39648438 65.0255127 C5.29506104 65.03360962 4.1936377 65.04170654 3.05883789 65.05004883 C1.54471313 65.03312988 1.54471313 65.03312988 0 65.01586914 C-0.87603882 65.01436104 -1.75207764 65.01285294 -2.65466309 65.01129913 C-5.80423818 64.33812908 -7.0090953 62.97769056 -9.00976562 60.50793457 C-10.09318162 56.37179947 -9.98055644 52.66250172 -9.00976562 48.50793457 C-6.99462437 45.76076241 -4.88147882 43.72439052 -2.27148438 41.54309082 C0.21073446 39.30952258 1.65241219 37.57168435 2.99023438 34.50793457 C2.92941871 29.34536061 1.05152387 26.90787177 -2.44726562 23.25793457 C-3.25035156 22.40715332 -4.0534375 21.55637207 -4.88085938 20.67980957 C-6.25045084 19.28257497 -7.62628355 17.89141665 -9.00976562 16.50793457 C-9.34570312 13.82824707 -9.34570312 13.82824707 -9.38476562 10.63293457 C-9.413125 9.5836377 -9.44148437 8.53434082 -9.47070312 7.45324707 C-8.60875862 1.94556778 -5.33154468 0.00917826 0 0 Z " fill="#C80A50" transform="translate(265.009765625,415.4920654296875)"/>
<path d="M0 0 C2.90234206 2.06219041 3.82333063 3.29332253 4.6875 6.75 C2.45199409 17.3178461 -12.169494 27.57243998 -19.58878231 35.08541107 C-22.01668073 37.54401397 -24.43588285 40.01000851 -26.83666992 42.49511719 C-29.62780417 45.38393115 -32.45096468 48.23940474 -35.27734375 51.09375 C-36.13279282 51.98735229 -36.98824188 52.88095459 -37.86961365 53.80163574 C-44.6267776 60.53711984 -44.6267776 60.53711984 -49.36328125 60.73901367 C-52.92818095 60.01459427 -54.39516014 59.60205233 -56.91015625 57.08203125 C-57.56902832 56.44217285 -58.22790039 55.80231445 -58.90673828 55.14306641 C-59.59751465 54.43585449 -60.28829102 53.72864258 -61 53 C-62.13864502 51.89470947 -62.13864502 51.89470947 -63.30029297 50.76708984 C-65.70325385 48.43009839 -68.07313287 46.06348564 -70.4375 43.6875 C-71.25154297 42.87732422 -72.06558594 42.06714844 -72.90429688 41.23242188 C-73.67708984 40.45833984 -74.44988281 39.68425781 -75.24609375 38.88671875 C-76.29301392 37.83810669 -76.29301392 37.83810669 -77.36108398 36.76831055 C-79.48698492 34.47456699 -79.958029 33.31478251 -80.375 30.1875 C-80 27 -80 27 -77.875 24.125 C-75 22 -75 22 -72.1875 21.25 C-67.2404382 22.41401454 -64.54154651 25.47649193 -61 29 C-60.52739746 29.46567383 -60.05479492 29.93134766 -59.56787109 30.41113281 C-56.35151474 33.58114398 -53.16694361 36.7806621 -50 40 C-44.89628829 35.7353954 -40.15196822 31.26152551 -35.4921875 26.51953125 C-34.0795603 25.09426899 -32.66679585 23.66914276 -31.25390625 22.24414062 C-29.05550853 20.02086747 -26.85875827 17.79601251 -24.66455078 15.56860352 C-22.52816971 13.40200186 -20.38559591 11.24167784 -18.2421875 9.08203125 C-17.58999237 8.4163765 -16.93779724 7.75072174 -16.26583862 7.06489563 C-7.01327492 -2.23827923 -7.01327492 -2.23827923 0 0 Z " fill="#EFEAEC" transform="translate(414,154)"/>
<path d="M0 0 C0.66 -0.0103125 1.32 -0.020625 2 -0.03125 C4.98174986 0.76077731 6.16411059 2.04673186 8 4.5 C8.390625 7.515625 8.390625 7.515625 8.25 10.75 C8.21390625 11.82765625 8.1778125 12.9053125 8.140625 14.015625 C8.09421875 14.83546875 8.0478125 15.6553125 8 16.5 C8.81984375 16.45359375 9.6396875 16.4071875 10.484375 16.359375 C11.56203125 16.32328125 12.6396875 16.2871875 13.75 16.25 C15.35101563 16.18039062 15.35101563 16.18039062 16.984375 16.109375 C20 16.5 20 16.5 22.359375 18.265625 C24.09023982 20.62289805 24.54492653 21.62470206 24.5 24.5 C24.5103125 25.16 24.520625 25.82 24.53125 26.5 C23.73922269 29.48174986 22.45326814 30.66411059 20 32.5 C16.984375 32.890625 16.984375 32.890625 13.75 32.75 C12.67234375 32.71390625 11.5946875 32.6778125 10.484375 32.640625 C9.66453125 32.59421875 8.8446875 32.5478125 8 32.5 C8.04640625 33.31984375 8.0928125 34.1396875 8.140625 34.984375 C8.19476563 36.60085938 8.19476563 36.60085938 8.25 38.25 C8.29640625 39.31734375 8.3428125 40.3846875 8.390625 41.484375 C8 44.5 8 44.5 6.234375 46.859375 C3.87710195 48.59023982 2.87529794 49.04492653 0 49 C-0.99 49.01546875 -0.99 49.01546875 -2 49.03125 C-4.98174986 48.23922269 -6.16411059 46.95326814 -8 44.5 C-8.390625 41.484375 -8.390625 41.484375 -8.25 38.25 C-8.21390625 37.17234375 -8.1778125 36.0946875 -8.140625 34.984375 C-8.09421875 34.16453125 -8.0478125 33.3446875 -8 32.5 C-8.81984375 32.54640625 -9.6396875 32.5928125 -10.484375 32.640625 C-12.10085938 32.69476563 -12.10085938 32.69476563 -13.75 32.75 C-14.81734375 32.79640625 -15.8846875 32.8428125 -16.984375 32.890625 C-20 32.5 -20 32.5 -22.359375 30.734375 C-24.09023982 28.37710195 -24.54492653 27.37529794 -24.5 24.5 C-24.51546875 23.51 -24.51546875 23.51 -24.53125 22.5 C-23.73922269 19.51825014 -22.45326814 18.33588941 -20 16.5 C-16.984375 16.109375 -16.984375 16.109375 -13.75 16.25 C-12.67234375 16.28609375 -11.5946875 16.3221875 -10.484375 16.359375 C-9.25460937 16.42898438 -9.25460937 16.42898438 -8 16.5 C-8.04640625 15.68015625 -8.0928125 14.8603125 -8.140625 14.015625 C-8.17671875 12.93796875 -8.2128125 11.8603125 -8.25 10.75 C-8.29640625 9.68265625 -8.3428125 8.6153125 -8.390625 7.515625 C-8 4.5 -8 4.5 -6.234375 2.140625 C-3.87710195 0.40976018 -2.87529794 -0.04492653 0 0 Z " fill="#01A0C8" transform="translate(344,351.5)"/>
<path d="M0 0 C0.66 -0.0103125 1.32 -0.020625 2 -0.03125 C4.98174986 0.76077731 6.16411059 2.04673186 8 4.5 C8.390625 7.515625 8.390625 7.515625 8.25 10.75 C8.21390625 11.82765625 8.1778125 12.9053125 8.140625 14.015625 C8.09421875 14.83546875 8.0478125 15.6553125 8 16.5 C8.81984375 16.45359375 9.6396875 16.4071875 10.484375 16.359375 C11.56203125 16.32328125 12.6396875 16.2871875 13.75 16.25 C15.35101563 16.18039062 15.35101563 16.18039062 16.984375 16.109375 C20 16.5 20 16.5 22.359375 18.265625 C24.09023982 20.62289805 24.54492653 21.62470206 24.5 24.5 C24.5103125 25.16 24.520625 25.82 24.53125 26.5 C23.73922269 29.48174986 22.45326814 30.66411059 20 32.5 C16.984375 32.890625 16.984375 32.890625 13.75 32.75 C12.67234375 32.71390625 11.5946875 32.6778125 10.484375 32.640625 C9.66453125 32.59421875 8.8446875 32.5478125 8 32.5 C8.04640625 33.31984375 8.0928125 34.1396875 8.140625 34.984375 C8.19476563 36.60085938 8.19476563 36.60085938 8.25 38.25 C8.29640625 39.31734375 8.3428125 40.3846875 8.390625 41.484375 C8 44.5 8 44.5 6.234375 46.859375 C3.87710195 48.59023982 2.87529794 49.04492653 0 49 C-0.99 49.01546875 -0.99 49.01546875 -2 49.03125 C-4.98174986 48.23922269 -6.16411059 46.95326814 -8 44.5 C-8.390625 41.484375 -8.390625 41.484375 -8.25 38.25 C-8.21390625 37.17234375 -8.1778125 36.0946875 -8.140625 34.984375 C-8.09421875 34.16453125 -8.0478125 33.3446875 -8 32.5 C-8.81984375 32.54640625 -9.6396875 32.5928125 -10.484375 32.640625 C-12.10085937 32.69476563 -12.10085937 32.69476563 -13.75 32.75 C-14.81734375 32.79640625 -15.8846875 32.8428125 -16.984375 32.890625 C-20 32.5 -20 32.5 -22.359375 30.734375 C-24.09023982 28.37710195 -24.54492653 27.37529794 -24.5 24.5 C-24.51546875 23.51 -24.51546875 23.51 -24.53125 22.5 C-23.73922269 19.51825014 -22.45326814 18.33588941 -20 16.5 C-16.984375 16.109375 -16.984375 16.109375 -13.75 16.25 C-12.67234375 16.28609375 -11.5946875 16.3221875 -10.484375 16.359375 C-9.25460938 16.42898438 -9.25460938 16.42898438 -8 16.5 C-8.04640625 15.68015625 -8.0928125 14.8603125 -8.140625 14.015625 C-8.17671875 12.93796875 -8.2128125 11.8603125 -8.25 10.75 C-8.29640625 9.68265625 -8.3428125 8.6153125 -8.390625 7.515625 C-8 4.5 -8 4.5 -6.234375 2.140625 C-3.87710195 0.40976018 -2.87529794 -0.04492653 0 0 Z " fill="#C80950" transform="translate(104,271.5)"/>
<path d="M0 0 C0.66 -0.0103125 1.32 -0.020625 2 -0.03125 C4.98174986 0.76077731 6.16411059 2.04673186 8 4.5 C8.390625 7.515625 8.390625 7.515625 8.25 10.75 C8.21390625 11.82765625 8.1778125 12.9053125 8.140625 14.015625 C8.09421875 14.83546875 8.0478125 15.6553125 8 16.5 C8.81984375 16.45359375 9.6396875 16.4071875 10.484375 16.359375 C11.56203125 16.32328125 12.6396875 16.2871875 13.75 16.25 C15.35101563 16.18039063 15.35101563 16.18039063 16.984375 16.109375 C20 16.5 20 16.5 22.359375 18.265625 C24.09023982 20.62289805 24.54492653 21.62470206 24.5 24.5 C24.5103125 25.16 24.520625 25.82 24.53125 26.5 C23.73922269 29.48174986 22.45326814 30.66411059 20 32.5 C16.984375 32.890625 16.984375 32.890625 13.75 32.75 C12.67234375 32.71390625 11.5946875 32.6778125 10.484375 32.640625 C9.66453125 32.59421875 8.8446875 32.5478125 8 32.5 C8.04640625 33.31984375 8.0928125 34.1396875 8.140625 34.984375 C8.19476563 36.60085937 8.19476563 36.60085937 8.25 38.25 C8.29640625 39.31734375 8.3428125 40.3846875 8.390625 41.484375 C8 44.5 8 44.5 6.234375 46.859375 C3.87710195 48.59023982 2.87529794 49.04492653 0 49 C-0.99 49.01546875 -0.99 49.01546875 -2 49.03125 C-4.98174986 48.23922269 -6.16411059 46.95326814 -8 44.5 C-8.390625 41.484375 -8.390625 41.484375 -8.25 38.25 C-8.21390625 37.17234375 -8.1778125 36.0946875 -8.140625 34.984375 C-8.09421875 34.16453125 -8.0478125 33.3446875 -8 32.5 C-8.81984375 32.54640625 -9.6396875 32.5928125 -10.484375 32.640625 C-12.10085937 32.69476563 -12.10085937 32.69476563 -13.75 32.75 C-14.81734375 32.79640625 -15.8846875 32.8428125 -16.984375 32.890625 C-20 32.5 -20 32.5 -22.359375 30.734375 C-24.09023982 28.37710195 -24.54492653 27.37529794 -24.5 24.5 C-24.51546875 23.51 -24.51546875 23.51 -24.53125 22.5 C-23.73922269 19.51825014 -22.45326814 18.33588941 -20 16.5 C-16.984375 16.109375 -16.984375 16.109375 -13.75 16.25 C-12.67234375 16.28609375 -11.5946875 16.3221875 -10.484375 16.359375 C-9.25460938 16.42898437 -9.25460938 16.42898437 -8 16.5 C-8.04640625 15.68015625 -8.0928125 14.8603125 -8.140625 14.015625 C-8.17671875 12.93796875 -8.2128125 11.8603125 -8.25 10.75 C-8.29640625 9.68265625 -8.3428125 8.6153125 -8.390625 7.515625 C-8 4.5 -8 4.5 -6.234375 2.140625 C-3.87710195 0.40976018 -2.87529794 -0.04492653 0 0 Z " fill="#FAB300" transform="translate(248,95.5)"/>
<path d="M0 0 C1.73618591 -0.00006042 1.73618591 -0.00006042 3.50744629 -0.00012207 C5.95179684 0.00523347 8.39614694 0.02281732 10.84033203 0.05175781 C14.58028833 0.09359939 18.31844293 0.09282635 22.05859375 0.0859375 C24.43490834 0.09643055 26.81121365 0.10936926 29.1875 0.125 C30.3053186 0.12520142 31.42313721 0.12540283 32.5748291 0.12561035 C34.14170471 0.14947815 34.14170471 0.14947815 35.74023438 0.17382812 C37.11326721 0.18645691 37.11326721 0.18645691 38.51403809 0.19934082 C41.63433226 0.676399 43.54257635 1.76301627 46.09375 3.59375 C47.49832737 6.40290474 47.34270157 8.48185534 47.09375 11.59375 C45.31390595 14.7296657 44.57066793 15.43477736 41.09375 16.59375 C39.38740843 16.70601312 37.67714861 16.76271412 35.96728516 16.78662109 C34.92255035 16.80268402 33.87781555 16.81874695 32.80142212 16.83529663 C28.03363736 16.87977343 23.26599045 16.92079304 18.49804688 16.94384766 C15.98200239 16.96042624 13.46600536 16.98774082 10.95019531 17.02587891 C7.32331909 17.08057216 3.69754524 17.10250922 0.0703125 17.1171875 C-1.61582657 17.15119156 -1.61582657 17.15119156 -3.33602905 17.18588257 C-11.12480853 17.16476223 -11.12480853 17.16476223 -15.11572266 14.24853516 C-16.90625 11.59375 -16.90625 11.59375 -17.53125 8.59375 C-15.57756079 -0.78395819 -7.83903622 -0.11497667 0 0 Z " fill="#EFEDEE" transform="translate(304.90625,439.40625)"/>
<path d="M0 0 C1.73618591 -0.00006042 1.73618591 -0.00006042 3.50744629 -0.00012207 C5.95179684 0.00523347 8.39614694 0.02281732 10.84033203 0.05175781 C14.58028833 0.09359939 18.31844293 0.09282635 22.05859375 0.0859375 C24.43490834 0.09643055 26.81121365 0.10936926 29.1875 0.125 C30.3053186 0.12520142 31.42313721 0.12540283 32.5748291 0.12561035 C34.14170471 0.14947815 34.14170471 0.14947815 35.74023438 0.17382812 C37.11326721 0.18645691 37.11326721 0.18645691 38.51403809 0.19934082 C41.63433226 0.676399 43.54257635 1.76301627 46.09375 3.59375 C47.49832737 6.40290474 47.34270157 8.48185534 47.09375 11.59375 C45.31390595 14.7296657 44.57066793 15.43477736 41.09375 16.59375 C39.38740843 16.70601312 37.67714861 16.76271412 35.96728516 16.78662109 C34.92255035 16.80268402 33.87781555 16.81874695 32.80142212 16.83529663 C28.03363736 16.87977343 23.26599045 16.92079304 18.49804688 16.94384766 C15.98200239 16.96042624 13.46600536 16.98774082 10.95019531 17.02587891 C7.32331909 17.08057216 3.69754524 17.10250922 0.0703125 17.1171875 C-1.61582657 17.15119156 -1.61582657 17.15119156 -3.33602905 17.18588257 C-11.12480853 17.16476223 -11.12480853 17.16476223 -15.11572266 14.24853516 C-16.90625 11.59375 -16.90625 11.59375 -17.53125 8.59375 C-15.57756079 -0.78395819 -7.83903622 -0.11497667 0 0 Z " fill="#F0EFED" transform="translate(240.90625,311.40625)"/>
<path d="M0 0 C1.73618591 -0.00006042 1.73618591 -0.00006042 3.50744629 -0.00012207 C5.95179684 0.00523347 8.39614694 0.02281732 10.84033203 0.05175781 C14.58028833 0.09359939 18.31844293 0.09282635 22.05859375 0.0859375 C24.43490834 0.09643055 26.81121365 0.10936926 29.1875 0.125 C30.3053186 0.12520142 31.42313721 0.12540283 32.5748291 0.12561035 C34.14170471 0.14947815 34.14170471 0.14947815 35.74023438 0.17382812 C37.11326721 0.18645691 37.11326721 0.18645691 38.51403809 0.19934082 C41.63433226 0.676399 43.54257635 1.76301627 46.09375 3.59375 C47.49832737 6.40290474 47.34270157 8.48185534 47.09375 11.59375 C45.31390595 14.7296657 44.57066793 15.43477736 41.09375 16.59375 C39.38740843 16.70601312 37.67714861 16.76271412 35.96728516 16.78662109 C34.92255035 16.80268402 33.87781555 16.81874695 32.80142212 16.83529663 C28.03363736 16.87977343 23.26599045 16.92079304 18.49804688 16.94384766 C15.98200239 16.96042624 13.46600536 16.98774082 10.95019531 17.02587891 C7.32331909 17.08057216 3.69754524 17.10250922 0.0703125 17.1171875 C-1.61582657 17.15119156 -1.61582657 17.15119156 -3.33602905 17.18588257 C-11.12480853 17.16476223 -11.12480853 17.16476223 -15.11572266 14.24853516 C-16.90625 11.59375 -16.90625 11.59375 -17.53125 8.59375 C-15.57756079 -0.78395819 -7.83903622 -0.11497667 0 0 Z " fill="#EDEFEF" transform="translate(176.90625,183.40625)"/>
<path d="M0 0 C1.73618591 -0.00006042 1.73618591 -0.00006042 3.50744629 -0.00012207 C5.95179684 0.00523347 8.39614694 0.02281732 10.84033203 0.05175781 C14.58028833 0.09359939 18.31844293 0.09282635 22.05859375 0.0859375 C24.43490834 0.09643055 26.81121365 0.10936926 29.1875 0.125 C30.3053186 0.12520142 31.42313721 0.12540283 32.5748291 0.12561035 C34.14170471 0.14947815 34.14170471 0.14947815 35.74023438 0.17382812 C37.11326721 0.18645691 37.11326721 0.18645691 38.51403809 0.19934082 C41.63433226 0.676399 43.54257635 1.76301627 46.09375 3.59375 C47.49832737 6.40290474 47.34270157 8.48185534 47.09375 11.59375 C45.31390595 14.7296657 44.57066793 15.43477736 41.09375 16.59375 C39.38740843 16.70601312 37.67714861 16.76271412 35.96728516 16.78662109 C34.92255035 16.80268402 33.87781555 16.81874695 32.80142212 16.83529663 C28.03363736 16.87977343 23.26599045 16.92079304 18.49804688 16.94384766 C15.98200239 16.96042624 13.46600536 16.98774082 10.95019531 17.02587891 C7.32331909 17.08057216 3.69754524 17.10250922 0.0703125 17.1171875 C-1.61582657 17.15119156 -1.61582657 17.15119156 -3.33602905 17.18588257 C-11.12480853 17.16476223 -11.12480853 17.16476223 -15.11572266 14.24853516 C-16.90625 11.59375 -16.90625 11.59375 -17.53125 8.59375 C-15.57756079 -0.78395819 -7.83903622 -0.11497667 0 0 Z " fill="#EDEDEE" transform="translate(112.90625,55.40625)"/>
<path d="M0 0 C8.13706226 2.28854876 15.20121315 10.32283087 20 17 C21.3125 20 21.3125 20 21 23 C17.02497378 30.30793281 9.56065725 38.44204365 2 42 C1.34 42 0.68 42 0 42 C-0.26953125 39.78125 -0.26953125 39.78125 0 37 C1.86328125 34.71875 1.86328125 34.71875 4.3125 32.5 C7.52377399 29.56279609 10.22563132 27.0210949 12 23 C11.93918434 17.83742604 10.06128949 15.3999372 6.5625 11.75 C5.75941406 10.89921875 4.95632813 10.0484375 4.12890625 9.171875 C2.75931478 7.7746404 1.38348208 6.38348208 0 5 C-0.125 2.375 -0.125 2.375 0 0 Z " fill="#A20129" transform="translate(256,427)"/>
<path d="M0 0 C8.14504368 2.29079353 15.18872786 10.32453124 20 17 C21.375 20 21.375 20 21 23 C19.03023155 26.03041299 16.5547849 28.45856764 14 31 C13.15695313 31.89074219 12.31390625 32.78148437 11.4453125 33.69921875 C3.94366682 41.50137546 3.94366682 41.50137546 0 42 C-0.33984375 39.34375 -0.33984375 39.34375 0 36 C1.77759276 33.91491591 3.38732953 32.26309579 5.4375 30.5 C8.46523848 27.87671598 10.73093276 25.82597386 12.0078125 21.90625 C11.99886129 18.57639864 11.53712761 17.5258678 9.4375 15 C8.88707031 14.32324219 8.33664063 13.64648438 7.76953125 12.94921875 C6.12551113 11.13825619 4.41640012 9.47563759 2.625 7.8125 C0 5 0 5 -0.375 2.125 C-0.25125 1.42375 -0.1275 0.7225 0 0 Z " fill="#0080A8" transform="translate(128,171)"/>
<path d="M0 0 C8.14504368 2.29079353 15.18872786 10.32453124 20 17 C21.375 20 21.375 20 21 23 C19.03023155 26.03041299 16.5547849 28.45856764 14 31 C13.15695313 31.89074219 12.31390625 32.78148437 11.4453125 33.69921875 C3.94366682 41.50137546 3.94366682 41.50137546 0 42 C-0.26953125 39.78125 -0.26953125 39.78125 0 37 C1.86328125 34.71875 1.86328125 34.71875 4.3125 32.5 C7.52377399 29.56279609 10.22563132 27.0210949 12 23 C11.93918434 17.83742604 10.06128949 15.3999372 6.5625 11.75 C5.75941406 10.89921875 4.95632812 10.0484375 4.12890625 9.171875 C2.75931478 7.7746404 1.38348208 6.38348208 0 5 C-0.125 2.375 -0.125 2.375 0 0 Z " fill="#DB9701" transform="translate(192,299)"/>
</svg>
